<?xml version="1.0" encoding="UTF-8"?>
<svg id="Artwork" xmlns="http://www.w3.org/2000/svg" viewBox="0 0 479.99 479.99">
  <defs>
    <style>
      .cls-1 {
        fill: #00ffa7;
      }
    </style>
  </defs>
  <path class="cls-1" d="m345.84,246.86c-11.05-7.26-23.13-13.65-36.23-19.18-5.37-2.21-9.12-5.25-11.25-9.12-2.13-3.87-2.65-8.72-1.54-14.56,3.47-17.05,4.58-33.39,3.31-49.02-1.27-15.63-7.1-25.34-17.52-29.12l-3.79-1.42c-11.05-4.1-21.94-2.21-32.68,5.68-10.74,7.9-20.33,18.47-28.77,31.73-7.15,11.23-13.53,22.8-19.16,34.71-4.5-.8-8.74-1.48-12.69-2.04-18.79-2.37-33.62-2.56-44.52-.59-10.89,1.98-17.13,5.96-18.71,11.96l-1.89,6.87c-1.58,5.53,1.26,11.64,8.52,18.35,7.26,6.71,14.92,12.43,22.97,17.17,8.05,4.89,13.65,10.7,16.81,17.4,3.16,6.71,4.34,15.35,3.55,25.93-1.11,14.21-.08,27.43,3.08,39.66,3.16,12.23,9.79,20.01,19.89,23.32l5.68,1.89c9,3,18.43.2,28.3-8.41,9.86-8.61,19.54-21.35,29.01-38.24,3.76-6.58,7.52-14,11.29-22.25,8.38,1.28,16.51,2.2,24.35,2.71,18.23,1.18,32.99.47,44.28-2.13,11.28-2.6,17.72-6.59,19.3-11.96l2.13-7.81c1.89-7.1-2.69-14.29-13.73-21.55Zm-103.71-83.47c9.79-15.55,20.13-24.82,31.02-27.82,7.89,2.21,12.47,9.83,13.73,22.85,1.26,13.02.79,26.16-1.42,39.43-1.11,6.32-3.67,10.62-7.7,12.9-4.03,2.29-9.2,2.57-15.51.83-13.52-3.88-27-7.3-40.44-10.27,5.97-13.23,12.73-25.87,20.32-37.91Zm-2.13,94.6c-11.52-3-19.38-8.48-23.56-16.46-4.18-7.97-4.07-17.48.36-28.53.07-.16.14-.32.2-.49.21.05.41.09.62.13,14.13,3.08,28.3,6.75,42.5,11.01,6,1.74,10.1,4.7,12.31,8.88,2.21,4.18,2.29,9.2.24,15.04-1.92,5.67-3.97,11.16-6.13,16.52-8.84-1.81-17.69-3.83-26.55-6.1Zm-64.88-31.61c-8.52,3.71-17.6,2.09-27.23-4.85-4.89-3.32-9-7.02-12.31-11.13,9.79-4.42,25.26-5.68,46.41-3.79,3.38.33,7.05.8,10.98,1.4-4.63,9.08-10.57,15.21-17.84,18.37Zm73.17,75.18c-8.21,14.05-16.58,24.94-25.1,32.68-8.52,7.73-16.1,11.21-22.73,10.42-4.58-6.47-7.22-14.21-7.93-23.21-.71-9-.28-18.47,1.3-28.41,1.1-7.26,5.21-11.92,12.31-13.97,7.1-2.05,16.65-1.58,28.65,1.42,7.58,1.92,14.96,3.57,22.16,4.95-2.89,5.82-5.77,11.21-8.66,16.12Zm50.79-31.85c-6.89-.97-13.78-2.08-20.68-3.33,1.8-4.7,3.53-9.46,5.17-14.31,2.21-6.16,5.45-10.22,9.71-12.19,4.26-1.97,9.23-1.69,14.92.83,21.78,9.63,34.25,18.63,37.41,26.99-11.37,4.11-26.88,4.78-46.53,2.01Z"/>
</svg>