<?xml version="1.0" encoding="UTF-8"?>
<svg width="111px" height="38px" viewBox="0 0 111 38" version="1.1" xmlns="http://www.w3.org/2000/svg" xmlns:xlink="http://www.w3.org/1999/xlink">
    <title>ic_logo</title>
    <g id="最终定稿" stroke="none" stroke-width="1" fill="none" fill-rule="evenodd">
        <g id="Home备份--1" transform="translate(-48.000000, -31.000000)">
            <g id="ic_logo" transform="translate(48.000000, 31.000000)">
                <rect id="矩形备份-47" x="0" y="0" width="111" height="38"></rect>
                <g id="enki-logo-1" transform="translate(0.000000, 0.079167)" fill="#BF6A2B">
                    <text id="ENKI" font-family="Nunito-Medium, Nunito" font-size="27.1515567" font-weight="400" letter-spacing="3.08540422">
                        <tspan x="38.0821683" y="27.6957779">ENKI</tspan>
                    </text>
                    <g>
                        <path d="M12.2406969,0 L23.3186763,20.0480314 C24.0644391,21.6482663 24.4813939,23.436197 24.4813939,25.3226484 C24.4813939,32.1618465 19.0010472,37.7061119 12.2406969,37.7061119 C5.4803467,37.7061119 0,32.1618465 0,25.3226484 C0,23.3790991 0.442576979,21.5401247 1.23133562,19.903245 L12.2406969,0 Z M12.2399625,3.32320654 L2.6554968,20.650463 L2.62856165,20.7072604 C1.97222939,22.1040099 1.62004801,23.6326048 1.60471961,25.2146965 L1.60419686,25.3226484 C1.60419686,31.2676547 6.36692453,36.0859313 12.2406969,36.0859313 C18.1144694,36.0859313 22.877197,31.2676547 22.877197,25.3226484 C22.877197,23.749836 22.5445905,22.2278358 21.9108914,20.832916 L21.8888143,20.7850924 L12.2399625,3.32320654 Z M12.3490821,12.7611072 L12.3553794,12.8316354 C12.4888588,14.6024901 11.3969282,16.5763537 9.87816189,17.3856628 L9.57365303,17.9793211 L9.57365303,17.9793211 L9.27990318,18.583614 L9.19743103,18.7594293 C10.0327523,17.8575407 11.3325872,17.2963533 12.4891567,17.3982305 L12.7041862,17.4251815 L12.7096383,17.4240099 L12.6807875,17.4761979 C11.9756404,18.8149879 10.2863703,19.7328178 8.82721338,19.5950242 C8.51737654,20.3256675 8.22906665,21.077545 7.9655773,21.8528479 C8.87452263,20.89771 10.3481574,20.3707487 11.5824658,20.5987954 L11.78583,20.64385 L11.7912509,20.6426851 L11.7591132,20.6927134 C10.9428123,21.9490166 9.19919447,22.7031372 7.7676209,22.4530767 C7.50893594,23.2647045 7.27449499,24.0970156 7.06760955,24.9521316 C7.92900594,23.9231685 9.40524401,23.3043158 10.6726622,23.4795726 L10.8709255,23.5138999 L10.8763775,23.5127283 L10.8448229,23.5655303 C10.0878697,24.8608006 8.37850895,25.6967032 6.93517154,25.512421 C6.86793079,25.8071384 6.80370456,26.1046432 6.74264111,26.4047014 C6.83734347,26.4107865 6.93150908,26.4129178 7.02616675,26.4129178 C8.3088518,26.4129178 9.50118372,26.0215581 10.4928568,25.350431 C10.4962075,25.3471486 10.4995947,25.3443655 10.5029843,25.3415852 L10.6124536,25.2674463 C10.6417606,25.2466018 10.6708824,25.2255087 10.6998159,25.2041701 C10.8021886,25.1286587 10.9018697,25.0503529 10.9990786,24.9691268 C12.2294866,24.1138433 13.7197522,23.6142587 15.3253568,23.6142587 C17.2585863,23.6142587 19.0246045,24.3385257 20.3727542,25.5334792 L20.4559177,25.6203247 C20.4469155,25.8031057 20.4320845,25.9843335 20.411609,26.1638216 L20.4021292,26.2341072 L20.3961292,26.2821072 L20.3931292,26.3041072 L20.3845687,26.3767333 L20.3801292,26.4041072 L20.3598518,26.5414008 C20.3549713,26.5718677 20.3498342,26.6028216 20.3445286,26.633717 L20.320889,26.7650931 C20.3139202,26.802133 20.3066528,26.8393619 20.299141,26.8765007 L20.2803468,26.9668453 L20.2607123,27.0562928 C20.252529,27.0926293 20.243991,27.1293746 20.2352133,27.166025 L20.2193386,27.231152 C20.2089502,27.2730363 20.198274,27.3146968 20.1872882,27.3562292 C20.1730111,27.4102076 20.1581762,27.4640914 20.1428217,27.5177519 C20.1288893,27.5664307 20.1146837,27.6144214 20.1000637,27.6622277 L20.0682162,27.7640305 L20.0682162,27.7640305 C20.0580488,27.7958145 20.0477125,27.8274702 20.037194,27.8590412 L19.9919742,27.991066 L19.9919742,27.991066 C19.9464089,28.1205522 19.8977313,28.2486393 19.8460591,28.3751558 C19.8360247,28.3997229 19.8259449,28.42407 19.8157543,28.4483581 C19.7989807,28.4883384 19.7818323,28.5283288 19.764384,28.5681548 L19.7124729,28.6842231 C19.7070155,28.6961824 19.7012233,28.7087917 19.6954008,28.721384 C19.632739,28.8568606 19.5670215,28.9895046 19.4979623,29.1200675 C19.4927909,29.1298461 19.4873239,29.1401315 19.4818362,29.1504039 C19.4517488,29.2067097 19.4214708,29.2618582 19.390596,29.3166175 C19.3314528,29.421499 19.2703765,29.5245406 19.2071903,29.6261032 C19.1383726,29.736707 19.0672563,29.8452609 18.9937312,29.9519897 C18.9209635,30.0576323 18.8455419,30.1618739 18.7678207,30.264235 C18.7252117,30.3203487 18.6820696,30.3756997 18.6382541,30.4304766 C18.4110594,30.714494 18.1659181,30.9829263 17.9044668,31.2341506 L17.8340962,31.3009832 L17.8340962,31.3009832 L17.7396876,31.3882397 C17.7180263,31.4079548 17.6957545,31.4280062 17.6733748,31.4479365 C17.5690753,31.5408119 17.4627311,31.6308161 17.3541562,31.7181025 C17.339166,31.7301532 17.3242038,31.7420963 17.3091996,31.7539879 C17.2734626,31.7823129 17.2373033,31.8104869 17.2009075,31.8383616 L17.1484952,31.878173 L17.1073624,31.9089592 C17.065544,31.9400562 17.0234242,31.9707627 16.9810083,32.0010733 L16.8779617,32.0735282 L16.8779617,32.0735282 C16.8494162,32.0932758 16.820644,32.1129116 16.7917432,32.1323675 C16.7536722,32.1579964 16.7154144,32.1832893 16.6769374,32.2082668 L16.5607061,32.2823409 C16.5462855,32.2913625 16.5316234,32.3004711 16.516931,32.3095344 L16.3646375,32.4012164 C16.3383251,32.4166702 16.3120106,32.4319288 16.2856053,32.4470441 C16.2368139,32.4749753 16.1875453,32.502508 16.1379711,32.5295411 C16.1214392,32.5385553 16.1051139,32.5473849 16.0887559,32.5561602 C16.0384643,32.5831427 15.987501,32.6097973 15.9362305,32.6359251 C15.909273,32.6496595 15.8829703,32.6628816 15.8565881,32.6759649 L15.7857341,32.7106772 L15.6420738,32.7784739 L15.4947474,32.8444883 L15.4947474,32.8444883 C15.469286,32.8555943 15.4439083,32.8665102 15.4184656,32.8773005 L15.2428567,32.949366 L15.2009336,32.9658655 C15.1546341,32.9839379 15.1082698,33.0015481 15.0617089,33.0187448 C15.0208091,33.0338509 14.9797125,33.0486538 14.9384666,33.0631339 L14.8368222,33.098062 L14.6865447,33.1469615 L14.6865447,33.1469615 L14.6542241,33.1570563 C14.5853528,33.1784029 14.5167267,33.1986825 14.4477358,33.2180753 C14.4444391,33.2190021 14.4407612,33.2200334 14.4370822,33.221062 C14.3682764,33.2402987 14.2993887,33.2585831 14.2301545,33.2759803 C14.2055271,33.2821664 14.1815658,33.2880688 14.1575636,33.2938648 C14.0195735,33.3271949 13.8797647,33.3570948 13.7386959,33.3833536 C13.722101,33.3864427 13.7054441,33.3894894 13.6887699,33.3924853 C13.6235817,33.4041993 13.5579528,33.4151636 13.4920668,33.425337 L13.4513397,33.43152 C13.38538,33.4413686 13.3184678,33.4505116 13.2513053,33.4588358 C13.1109733,33.4762295 12.969489,33.4900522 12.827003,33.5002037 C12.8011948,33.5020411 12.7757627,33.5037328 12.7502993,33.5053073 L12.6721755,33.5097646 L12.4568952,33.518196 L12.2406969,33.5210165 L11.9911292,33.5161072 L11.8273995,33.510695 C11.7507806,33.5068623 11.6741272,33.5019447 11.5977661,33.4959723 L11.5638969,33.4932526 C11.4668065,33.4852524 11.3702753,33.4755562 11.2742495,33.4641868 C11.2621345,33.4627533 11.2494876,33.4612266 11.2368495,33.459671 C11.1435245,33.4481767 11.0512688,33.4351943 10.9595158,33.4206775 L10.8594285,33.4042005 C10.7879582,33.3919741 10.7169478,33.3788442 10.646262,33.3647983 C10.625521,33.3606776 10.6045336,33.3564213 10.5835752,33.3520844 C10.3892492,33.3118672 10.1976185,33.2647747 10.008741,33.2110303 C9.97920884,33.2026241 9.95046889,33.1942704 9.9217939,33.1857629 C9.85485175,33.1659101 9.78742739,33.1449474 9.72037834,33.1231378 C9.69514713,33.1149287 9.67050179,33.1067788 9.645908,33.0985146 C9.56922193,33.0727484 9.49281369,33.0457887 9.41692831,33.0177306 C9.39997057,33.0114605 9.38305041,33.0051399 9.36615653,32.9987648 C9.2795214,32.9660721 9.19355302,32.9319341 9.10830454,32.8963889 C9.08269792,32.8857126 9.05699047,32.8748382 9.0313496,32.863836 C8.96647769,32.8359986 8.90218251,32.8074122 8.83832407,32.778024 C8.80772802,32.7639443 8.77706232,32.7495998 8.74649941,32.7350706 L8.67002136,32.6982238 L8.67002136,32.6982238 L8.51098027,32.6184154 L8.48464254,32.6047766 C8.40607078,32.5639076 8.3282339,32.5217964 8.25115726,32.4784686 L8.20599135,32.4528903 C8.13133459,32.4102978 8.05738881,32.3665521 7.98419008,32.321684 L7.93853439,32.2934931 C7.86955518,32.2505846 7.80154295,32.20687 7.73421793,32.162183 C7.7226735,32.1545197 7.7114397,32.1470227 7.7002252,32.1394986 C5.59179726,30.7249671 4.16518428,28.3531435 4.02612921,25.6367829 C4.75972601,26.0444599 5.5823987,26.3070356 6.4570347,26.3870206 L6.53670175,26.0007258 L6.65733411,25.4485235 C5.4402878,24.6789011 4.63368963,22.9662916 4.78036126,21.472058 L4.80632161,21.2697616 L4.81711125,21.2128237 C5.95278145,21.8541864 6.75947506,23.3107848 6.83121539,24.7068394 C7.02889309,23.9025564 7.2508148,23.1189568 7.49429461,22.3565847 C6.34306211,21.5508252 5.64203111,19.8671695 5.85514045,18.4235902 L5.88991054,18.2283315 L5.90398715,18.1735533 C6.98854876,18.8287648 7.71624509,20.2477195 7.74706541,21.597981 C7.99748351,20.8686092 8.27210783,20.1598958 8.56497877,19.4702886 C7.63018991,18.4061757 7.35481346,16.5847913 7.9166708,15.2281142 L8.00265081,15.0375965 L8.02933652,14.9887397 C8.78983614,15.7658875 9.15857392,17.0213674 9.0574347,18.1940134 L9.03,18.426 L9.31269399,17.847101 L9.60523327,17.2775882 C9.54813424,15.5235494 10.6541122,13.6126563 12.1609613,12.8483853 L12.3436586,12.76226 L12.3490821,12.7611072 Z" id="蒙版"></path>
                        <text id="ENKI" font-family="Nunito-Medium, Nunito" font-size="27.1515567" font-weight="400" letter-spacing="3.08540422">
                            <tspan x="38.0821683" y="27.6957779">ENKI</tspan>
                        </text>
                    </g>
                </g>
            </g>
        </g>
    </g>
</svg>